<?xml version="1.0" encoding="UTF-8"?>
<svg version="1.1" xmlns="http://www.w3.org/2000/svg" width="80" height="80">
<path d="M0 0 C1.9375 1.0625 1.9375 1.0625 3 3 C3.51045007 6.36907482 3.72032059 8.86996166 1.83605957 11.82598877 C0.11117166 13.81641285 -1.69563894 15.66560041 -3.578125 17.5078125 C-4.25993835 18.19632294 -4.94175171 18.88483337 -5.64422607 19.59420776 C-7.09178436 21.04652383 -8.54819791 22.49005978 -10.01269531 23.92529297 C-12.22544448 26.10085714 -14.39870449 28.31080252 -16.5703125 30.52734375 C-30.60556134 44.60949702 -30.60556134 44.60949702 -41 47 C-41.99 47 -42.98 47 -44 47 C-42.27142349 37.47283247 -38.7214397 30.79531803 -31.85546875 24.0234375 C-31.16745682 23.32731354 -30.47944489 22.63118958 -29.77058411 21.91397095 C-28.32479889 20.45978245 -26.87143832 19.01308929 -25.41088867 17.57373047 C-23.18059373 15.36817032 -20.98735253 13.12985136 -18.79492188 10.88671875 C-17.3796959 9.47186296 -15.96244613 8.05902796 -14.54296875 6.6484375 C-13.56604317 5.64555191 -13.56604317 5.64555191 -12.56938171 4.62240601 C-8.44535425 0.62223544 -6.01033022 -0.91964901 0 0 Z M-5 3 C-3.35 4.65 -1.7 6.3 0 8 C-0.33 6.35 -0.66 4.7 -1 3 C-2.32 3 -3.64 3 -5 3 Z M-8 6 C-8 7.32 -8 8.64 -8 10 C-6.68 10.66 -5.36 11.32 -4 12 C-4 11.01 -4 10.02 -4 9 C-5.94009522 7.29467677 -5.94009522 7.29467677 -8 6 Z M-13 11 C-16.02496544 13.9014742 -19.03324439 16.81895591 -22.02709961 19.75244141 C-23.04804798 20.74822727 -24.07343622 21.73948191 -25.10327148 22.72607422 C-26.58203823 24.14426497 -28.04412415 25.57793246 -29.50390625 27.015625 C-30.38892822 27.87446289 -31.2739502 28.73330078 -32.18579102 29.61816406 C-34.28154903 31.81105968 -34.28154903 31.81105968 -33.78100586 34.31152344 C-33.15124512 36.15124512 -33.15124512 36.15124512 -31.31152344 36.78100586 C-28.81105968 37.28154903 -28.81105968 37.28154903 -26.61816406 35.18579102 C-25.32990723 33.85825806 -25.32990723 33.85825806 -24.015625 32.50390625 C-23.55516785 32.03637436 -23.09471069 31.56884247 -22.62030029 31.08714294 C-21.15140239 29.59024181 -19.7008193 28.07690962 -18.25 26.5625 C-17.25766842 25.5450932 -16.26419171 24.52880197 -15.26953125 23.51367188 C-12.83293067 21.02192521 -10.41246671 18.51514503 -8 16 C-8.79117904 14.00016466 -8.79117904 14.00016466 -10 12 C-10.99 11.67 -11.98 11.34 -13 11 Z M-37 36 C-37.66 37.65 -38.32 39.3 -39 41 C-38.01 41.495 -38.01 41.495 -37 42 C-35.68 41.01 -34.36 40.02 -33 39 C-33.99 39 -34.98 39 -36 39 C-36.33 38.01 -36.66 37.02 -37 36 Z " fill="#FAB004" transform="translate(73,4)"/>
<path d="M0 0 C1.68216214 0.00031737 3.36434441 0.01165683 5.04638672 0.03173828 C6.37390457 0.03598312 6.37390457 0.03598312 7.72824097 0.04031372 C10.56098834 0.05152838 13.39342206 0.07663508 16.22607422 0.10205078 C18.14403841 0.11207893 20.06200755 0.12120507 21.97998047 0.12939453 C26.68713298 0.15147189 31.39405038 0.18601033 36.10107422 0.22705078 C35.77107422 0.88705078 35.44107422 1.54705078 35.10107422 2.22705078 C16.29107422 2.72205078 16.29107422 2.72205078 -2.89892578 3.22705078 C-2.89892578 19.72705078 -2.89892578 36.22705078 -2.89892578 53.22705078 C13.60107422 53.22705078 30.10107422 53.22705078 47.10107422 53.22705078 C47.43107422 39.36705078 47.76107422 25.50705078 48.10107422 11.22705078 C48.76107422 10.89705078 49.42107422 10.56705078 50.10107422 10.22705078 C50.15167303 16.45667055 50.18676484 22.68623758 50.2109375 28.91601562 C50.22101173 31.03647848 50.23467155 33.15692739 50.25195312 35.27734375 C50.27613911 38.32051021 50.28754291 41.36349345 50.29638672 44.40673828 C50.30670929 45.358862 50.31703186 46.31098572 50.32766724 47.29196167 C50.32789383 48.61310471 50.32789383 48.61310471 50.328125 49.9609375 C50.33256622 50.73815155 50.33700745 51.5153656 50.34158325 52.31613159 C50.10107422 54.22705078 50.10107422 54.22705078 48.10107422 56.22705078 C45.89990234 56.48101807 45.89990234 56.48101807 43.13232422 56.48583984 C42.09785156 56.49214417 41.06337891 56.49844849 39.99755859 56.50494385 C38.31629883 56.49887115 38.31629883 56.49887115 36.60107422 56.49267578 C34.88114258 56.49554596 34.88114258 56.49554596 33.12646484 56.49847412 C30.69872824 56.499837 28.27098438 56.49613345 25.84326172 56.48779297 C22.11653349 56.47709516 18.39028736 56.48768509 14.66357422 56.50048828 C12.30940648 56.49916671 9.95523905 56.49660435 7.60107422 56.49267578 C6.48023438 56.49672424 5.35939453 56.50077271 4.20458984 56.50494385 C2.65288086 56.49548737 2.65288086 56.49548737 1.06982422 56.48583984 C0.15652344 56.48424866 -0.75677734 56.48265747 -1.69775391 56.48101807 C-3.89892578 56.22705078 -3.89892578 56.22705078 -5.89892578 54.22705078 C-6.15289307 52.02587891 -6.15289307 52.02587891 -6.15771484 49.25830078 C-6.16401917 48.22382812 -6.17032349 47.18935547 -6.17681885 46.12353516 C-6.17277039 45.00269531 -6.16872192 43.88185547 -6.16455078 42.72705078 C-6.16646423 41.58042969 -6.16837769 40.43380859 -6.17034912 39.25244141 C-6.171712 36.8247048 -6.16800845 34.39696094 -6.15966797 31.96923828 C-6.14897016 28.24251005 -6.15956009 24.51626393 -6.17236328 20.78955078 C-6.17104171 18.43538305 -6.16847935 16.08121561 -6.16455078 13.72705078 C-6.16859924 12.60621094 -6.17264771 11.48537109 -6.17681885 10.33056641 C-6.17051453 9.29609375 -6.16421021 8.26162109 -6.15771484 7.19580078 C-6.15612366 6.2825 -6.15453247 5.36919922 -6.15289307 4.42822266 C-5.6691532 0.23557795 -3.99538368 0.23266793 0 0 Z " fill="#F9AF05" transform="translate(17.89892578125,13.77294921875)"/>
<path d="M0 0 C0.66 0 1.32 0 2 0 C2 0.66 2 1.32 2 2 C1.34 2 0.68 2 0 2 C0 1.34 0 0.68 0 0 Z " fill="#F9B005" transform="translate(59,61)"/>
<path d="M0 0 C0.66 0 1.32 0 2 0 C2 0.66 2 1.32 2 2 C1.34 2 0.68 2 0 2 C0 1.34 0 0.68 0 0 Z " fill="#F9B005" transform="translate(55,61)"/>
<path d="M0 0 C0.66 0 1.32 0 2 0 C2 0.66 2 1.32 2 2 C1.34 2 0.68 2 0 2 C0 1.34 0 0.68 0 0 Z " fill="#F9B005" transform="translate(51,61)"/>
<path d="M0 0 C0.66 0 1.32 0 2 0 C2 0.66 2 1.32 2 2 C1.34 2 0.68 2 0 2 C0 1.34 0 0.68 0 0 Z " fill="#F9B005" transform="translate(47,61)"/>
<path d="M0 0 C0.66 0 1.32 0 2 0 C2 0.66 2 1.32 2 2 C1.34 2 0.68 2 0 2 C0 1.34 0 0.68 0 0 Z " fill="#F9B005" transform="translate(43,61)"/>
<path d="M0 0 C0.66 0 1.32 0 2 0 C2 0.66 2 1.32 2 2 C1.34 2 0.68 2 0 2 C0 1.34 0 0.68 0 0 Z " fill="#F9B005" transform="translate(39,61)"/>
<path d="M0 0 C0.66 0 1.32 0 2 0 C2 0.66 2 1.32 2 2 C1.34 2 0.68 2 0 2 C0 1.34 0 0.68 0 0 Z " fill="#F9B005" transform="translate(35,61)"/>
<path d="M0 0 C0.66 0 1.32 0 2 0 C2 0.66 2 1.32 2 2 C1.34 2 0.68 2 0 2 C0 1.34 0 0.68 0 0 Z " fill="#F9B005" transform="translate(31,61)"/>
<path d="M0 0 C0.66 0 1.32 0 2 0 C2 0.66 2 1.32 2 2 C1.34 2 0.68 2 0 2 C0 1.34 0 0.68 0 0 Z " fill="#F9B005" transform="translate(27,61)"/>
<path d="M0 0 C0.66 0 1.32 0 2 0 C2 0.66 2 1.32 2 2 C1.34 2 0.68 2 0 2 C0 1.34 0 0.68 0 0 Z " fill="#F9B005" transform="translate(23,61)"/>
<path d="M0 0 C0.66 0 1.32 0 2 0 C2 0.66 2 1.32 2 2 C1.34 2 0.68 2 0 2 C0 1.34 0 0.68 0 0 Z " fill="#F9B005" transform="translate(19,61)"/>
<path d="M0 0 C0.66 0 1.32 0 2 0 C2 0.66 2 1.32 2 2 C1.34 2 0.68 2 0 2 C0 1.34 0 0.68 0 0 Z " fill="#F9B005" transform="translate(59,57)"/>
<path d="M0 0 C0.66 0 1.32 0 2 0 C2 0.66 2 1.32 2 2 C1.34 2 0.68 2 0 2 C0 1.34 0 0.68 0 0 Z " fill="#F9B005" transform="translate(19,57)"/>
<path d="M0 0 C0.66 0 1.32 0 2 0 C2 0.66 2 1.32 2 2 C1.34 2 0.68 2 0 2 C0 1.34 0 0.68 0 0 Z " fill="#F9B005" transform="translate(59,53)"/>
<path d="M0 0 C0.66 0 1.32 0 2 0 C2 0.66 2 1.32 2 2 C1.34 2 0.68 2 0 2 C0 1.34 0 0.68 0 0 Z " fill="#F9B005" transform="translate(19,53)"/>
<path d="M0 0 C0.66 0 1.32 0 2 0 C2 0.66 2 1.32 2 2 C1.34 2 0.68 2 0 2 C0 1.34 0 0.68 0 0 Z " fill="#F9B005" transform="translate(59,49)"/>
<path d="M0 0 C0.66 0 1.32 0 2 0 C2 0.66 2 1.32 2 2 C1.34 2 0.68 2 0 2 C0 1.34 0 0.68 0 0 Z " fill="#F9B005" transform="translate(19,49)"/>
<path d="M0 0 C0.66 0 1.32 0 2 0 C2 0.66 2 1.32 2 2 C1.34 2 0.68 2 0 2 C0 1.34 0 0.68 0 0 Z " fill="#F9B005" transform="translate(59,45)"/>
<path d="M0 0 C0.66 0 1.32 0 2 0 C2 0.66 2 1.32 2 2 C1.34 2 0.68 2 0 2 C0 1.34 0 0.68 0 0 Z " fill="#F9B005" transform="translate(19,45)"/>
<path d="M0 0 C0.66 0 1.32 0 2 0 C2 0.66 2 1.32 2 2 C1.34 2 0.68 2 0 2 C0 1.34 0 0.68 0 0 Z " fill="#F9B005" transform="translate(59,41)"/>
<path d="M0 0 C0.66 0 1.32 0 2 0 C2 0.66 2 1.32 2 2 C1.34 2 0.68 2 0 2 C0 1.34 0 0.68 0 0 Z " fill="#F9B005" transform="translate(19,41)"/>
<path d="M0 0 C0.66 0 1.32 0 2 0 C2 0.66 2 1.32 2 2 C1.34 2 0.68 2 0 2 C0 1.34 0 0.68 0 0 Z " fill="#F9B005" transform="translate(59,37)"/>
<path d="M0 0 C0.66 0 1.32 0 2 0 C2 0.66 2 1.32 2 2 C1.34 2 0.68 2 0 2 C0 1.34 0 0.68 0 0 Z " fill="#F9B005" transform="translate(19,37)"/>
<path d="M0 0 C0.66 0 1.32 0 2 0 C2 0.66 2 1.32 2 2 C1.34 2 0.68 2 0 2 C0 1.34 0 0.68 0 0 Z " fill="#F9B005" transform="translate(59,33)"/>
<path d="M0 0 C0.66 0 1.32 0 2 0 C2 0.66 2 1.32 2 2 C1.34 2 0.68 2 0 2 C0 1.34 0 0.68 0 0 Z " fill="#F9B005" transform="translate(19,33)"/>
<path d="M0 0 C0.66 0 1.32 0 2 0 C2 0.66 2 1.32 2 2 C1.34 2 0.68 2 0 2 C0 1.34 0 0.68 0 0 Z " fill="#F9B005" transform="translate(19,29)"/>
<path d="M0 0 C0.66 0 1.32 0 2 0 C2 0.66 2 1.32 2 2 C1.34 2 0.68 2 0 2 C0 1.34 0 0.68 0 0 Z " fill="#F9B005" transform="translate(19,25)"/>
<path d="M0 0 C0.66 0 1.32 0 2 0 C2 0.66 2 1.32 2 2 C1.34 2 0.68 2 0 2 C0 1.34 0 0.68 0 0 Z " fill="#F9B005" transform="translate(43,21)"/>
<path d="M0 0 C0.66 0 1.32 0 2 0 C2 0.66 2 1.32 2 2 C1.34 2 0.68 2 0 2 C0 1.34 0 0.68 0 0 Z " fill="#F9B005" transform="translate(39,21)"/>
<path d="M0 0 C0.66 0 1.32 0 2 0 C2 0.66 2 1.32 2 2 C1.34 2 0.68 2 0 2 C0 1.34 0 0.68 0 0 Z " fill="#F9B005" transform="translate(35,21)"/>
<path d="M0 0 C0.66 0 1.32 0 2 0 C2 0.66 2 1.32 2 2 C1.34 2 0.68 2 0 2 C0 1.34 0 0.68 0 0 Z " fill="#F9B005" transform="translate(31,21)"/>
<path d="M0 0 C0.66 0 1.32 0 2 0 C2 0.66 2 1.32 2 2 C1.34 2 0.68 2 0 2 C0 1.34 0 0.68 0 0 Z " fill="#F9B005" transform="translate(27,21)"/>
<path d="M0 0 C0.66 0 1.32 0 2 0 C2 0.66 2 1.32 2 2 C1.34 2 0.68 2 0 2 C0 1.34 0 0.68 0 0 Z " fill="#F9B005" transform="translate(23,21)"/>
<path d="M0 0 C0.66 0 1.32 0 2 0 C2 0.66 2 1.32 2 2 C1.34 2 0.68 2 0 2 C0 1.34 0 0.68 0 0 Z " fill="#F9B005" transform="translate(19,21)"/>
</svg>
