<?xml version="1.0" encoding="UTF-8"?>
<svg version="1.1" xmlns="http://www.w3.org/2000/svg" width="64" height="64">
<path d="M0 0 C2.49361571 1.20381448 4.68143083 2.45428722 7 4 C7.33 2.68 7.66 1.36 8 0 C9.32 0 10.64 0 12 0 C12.495 1.98 12.495 1.98 13 4 C11.68 4.99 10.36 5.98 9 7 C9.515625 7.4125 10.03125 7.825 10.5625 8.25 C11.036875 8.8275 11.51125 9.405 12 10 C11.6875 12 11.6875 12 11 14 C11 14.99 11 15.98 11 17 C11 17.99 11 18.98 11 20 C11.99 20 12.98 20 14 20 C14.495 21.98 14.495 21.98 15 24 C16.65 24 18.3 24 20 24 C20.33 22.68 20.66 21.36 21 20 C21.495 21.98 21.495 21.98 22 24 C23.65 24 25.3 24 27 24 C27 25.32 27 26.64 27 28 C27.99 28 28.98 28 30 28 C30 37.24 30 46.48 30 56 C30.66 56 31.32 56 32 56 C32 57.98 32 59.96 32 62 C12.86 62 -6.28 62 -26 62 C-26 60.02 -26 58.04 -26 56 C-25.34 56 -24.68 56 -24 56 C-24 49.4 -24 42.8 -24 36 C-23.01 36 -22.02 36 -21 36 C-21 35.01 -21 34.02 -21 33 C-19.35 33 -17.7 33 -16 33 C-16 32.01 -16 31.02 -16 30 C-15.34 30 -14.68 30 -14 30 C-14 30.99 -14 31.98 -14 33 C-12.35 33 -10.7 33 -9 33 C-8.67 28.71 -8.34 24.42 -8 20 C-7.01 20 -6.02 20 -5 20 C-4.67 18.68 -4.34 17.36 -4 16 C-2.02 16 -0.04 16 2 16 C1.360625 15.29875 0.72125 14.5975 0.0625 13.875 C-2.22912265 10.68061691 -2.91849905 8.91204555 -3 5 C-1.5625 2.125 -1.5625 2.125 0 0 Z M0 4 C0.33 6.31 0.66 8.62 1 11 C2.98 11.66 4.96 12.32 7 13 C7.66 12.34 8.32 11.68 9 11 C7.88121617 9.82737096 6.75476949 8.66204862 5.625 7.5 C4.99851562 6.8503125 4.37203125 6.200625 3.7265625 5.53125 C2.13524093 3.77882569 2.13524093 3.77882569 0 4 Z M-2 18 C-2.33 18.66 -2.66 19.32 -3 20 C0.96 20 4.92 20 9 20 C8.67 19.34 8.34 18.68 8 18 C4.7 18 1.4 18 -2 18 Z M-6 22 C-6 33.22 -6 44.44 -6 56 C-5.01 56 -4.02 56 -3 56 C-3 56.66 -3 57.32 -3 58 C-9.93 58 -16.86 58 -24 58 C-24 58.66 -24 59.32 -24 60 C-6.18 60 11.64 60 30 60 C30 59.34 30 58.68 30 58 C19.77 58 9.54 58 -1 58 C-1 57.34 -1 56.68 -1 56 C3.29 56 7.58 56 12 56 C12 49.4 12 42.8 12 36 C12.66 36 13.32 36 14 36 C14 42.6 14 49.2 14 56 C14.99 56 15.98 56 17 56 C17 54.35 17 52.7 17 51 C19.64 51 22.28 51 25 51 C25 52.65 25 54.3 25 56 C25.66 56 26.32 56 27 56 C27 53.69 27 51.38 27 49 C23.04 49 19.08 49 15 49 C15 48.34 15 47.68 15 47 C18.96 47 22.92 47 27 47 C26.505 45.515 26.505 45.515 26 44 C22.37 44.33 18.74 44.66 15 45 C15 44.01 15 43.02 15 42 C18.96 42.33 22.92 42.66 27 43 C27 42.01 27 41.02 27 40 C23.04 40 19.08 40 15 40 C15 39.34 15 38.68 15 38 C18.96 38 22.92 38 27 38 C27 37.34 27 36.68 27 36 C23.04 36 19.08 36 15 36 C15 35.34 15 34.68 15 34 C18.96 34 22.92 34 27 34 C27 32.68 27 31.36 27 30 C22.71 30 18.42 30 14 30 C14 30.99 14 31.98 14 33 C13.34 33 12.68 33 12 33 C12 29.37 12 25.74 12 22 C6.06 22 0.12 22 -6 22 Z M17 26 C17 26.66 17 27.32 17 28 C19.64 28 22.28 28 25 28 C25 27.34 25 26.68 25 26 C22.36 26 19.72 26 17 26 Z M-19 35 C-19 35.33 -19 35.66 -19 36 C-16.36 36 -13.72 36 -11 36 C-11 35.67 -11 35.34 -11 35 C-13.64 35 -16.28 35 -19 35 Z M-21 38 C-21 38.66 -21 39.32 -21 40 C-17.04 40 -13.08 40 -9 40 C-9 40.66 -9 41.32 -9 42 C-12.96 42 -16.92 42 -21 42 C-21 42.66 -21 43.32 -21 44 C-17.04 44 -13.08 44 -9 44 C-9 44.66 -9 45.32 -9 46 C-12.96 46 -16.92 46 -21 46 C-21 46.66 -21 47.32 -21 48 C-17.04 48 -13.08 48 -9 48 C-9 48.66 -9 49.32 -9 50 C-12.96 50 -16.92 50 -21 50 C-21 51.98 -21 53.96 -21 56 C-20.34 56 -19.68 56 -19 56 C-19 54.68 -19 53.36 -19 52 C-16.36 52 -13.72 52 -11 52 C-11 53.32 -11 54.64 -11 56 C-10.01 56 -9.02 56 -8 56 C-8 50.06 -8 44.12 -8 38 C-12.29 38 -16.58 38 -21 38 Z M19 53 C19 53.99 19 54.98 19 56 C20.32 56 21.64 56 23 56 C23 55.01 23 54.02 23 53 C21.68 53 20.36 53 19 53 Z M-17 55 C-13 56 -13 56 -13 56 Z " fill="#F9AF04" transform="translate(29,1)"/>
<path d="M0 0 C0.66 0 1.32 0 2 0 C2 10.23 2 20.46 2 31 C1.01 30.67 0.02 30.34 -1 30 C-1.02465746 25.8882744 -1.04283959 21.77657722 -1.05493164 17.66479492 C-1.0599708 16.26504772 -1.06680216 14.8653058 -1.07543945 13.46557617 C-1.0875232 11.45754223 -1.09269807 9.44947043 -1.09765625 7.44140625 C-1.10289307 6.23170166 -1.10812988 5.02199707 -1.11352539 3.77563477 C-1 1 -1 1 0 0 Z " fill="#F8B005" transform="translate(25,25)"/>
<path d="M0 0 C0.66 0 1.32 0 2 0 C2 10.23 2 20.46 2 31 C1.34 31 0.68 31 0 31 C0 20.77 0 10.54 0 0 Z " fill="#F9AF05" transform="translate(37,25)"/>
<path d="M0 0 C0.66 0 1.32 0 2 0 C2 10.23 2 20.46 2 31 C1.34 31 0.68 31 0 31 C0 20.77 0 10.54 0 0 Z " fill="#FAB003" transform="translate(29,25)"/>
<path d="M0 0 C0.66 0 1.32 0 2 0 C2 10.23 2 20.46 2 31 C1.34 31 0.68 31 0 31 C0 20.77 0 10.54 0 0 Z " fill="#F9AF04" transform="translate(33,25)"/>
</svg>
