<?xml version="1.0" encoding="UTF-8"?>
<svg version="1.1" xmlns="http://www.w3.org/2000/svg" width="100" height="100">
<path d="M0 0 C0.80308594 -0.00451172 1.60617188 -0.00902344 2.43359375 -0.01367188 C3.31273438 -0.01882813 4.191875 -0.02398437 5.09765625 -0.02929688 C6.01289062 -0.01382812 6.928125 0.00164063 7.87109375 0.01757812 C9.24394531 -0.005625 9.24394531 -0.005625 10.64453125 -0.02929688 C11.96324219 -0.0215625 11.96324219 -0.0215625 13.30859375 -0.01367188 C14.11167969 -0.00916016 14.91476563 -0.00464844 15.7421875 0 C18.61616126 0.69871839 19.20315491 2.15655844 20.87109375 4.51757812 C22.02609375 4.84757813 23.18109375 5.17757813 24.37109375 5.51757812 C27.87109375 6.51757812 27.87109375 6.51757812 29.74609375 8.33007812 C30.87109375 10.51757812 30.87109375 10.51757812 31.30859375 13.08007812 C31.61764786 15.67614293 31.61764786 15.67614293 33.87304688 16.88476562 C35.87109375 18.51757812 35.87109375 18.51757812 36.38867188 20.64648438 C36.39318359 21.44957031 36.39769531 22.25265625 36.40234375 23.08007812 C36.41007812 24.39878906 36.41007812 24.39878906 36.41796875 25.74414062 C36.4025 26.659375 36.38703125 27.57460938 36.37109375 28.51757812 C36.3865625 29.4328125 36.40203125 30.34804688 36.41796875 31.29101562 C36.4128125 32.17015625 36.40765625 33.04929688 36.40234375 33.95507812 C36.39783203 34.75816406 36.39332031 35.56125 36.38867188 36.38867188 C35.68943421 39.26478153 34.23743338 39.8509504 31.87109375 41.51757812 C30.64139497 45.02948622 30.64139497 45.02948622 29.87109375 48.51757812 C29.37609375 49.50757812 29.37609375 49.50757812 28.87109375 50.51757812 C29.38902643 52.41951823 29.38902643 52.41951823 30.3046875 54.50976562 C30.62373047 55.29738281 30.94277344 56.085 31.27148438 56.89648438 C31.61373047 57.72019531 31.95597656 58.54390625 32.30859375 59.39257812 C32.98030315 61.01235736 33.64590693 62.63468519 34.3046875 64.25976562 C34.60431396 64.98019043 34.90394043 65.70061523 35.21264648 66.44287109 C35.87109375 68.51757812 35.87109375 68.51757812 35.87109375 72.51757812 C35.195625 72.44796875 34.52015625 72.37835938 33.82421875 72.30664062 C31.06565016 72.13921305 28.60311739 72.0780412 25.87109375 72.51757812 C23.44687189 75.40267726 23.44687189 75.40267726 21.87109375 78.51757812 C20.55109375 78.51757812 19.23109375 78.51757812 17.87109375 78.51757812 C16.53237734 75.06130432 15.20103983 71.60223515 13.87109375 68.14257812 C13.48953125 67.15773438 13.10796875 66.17289062 12.71484375 65.15820312 C12.1734375 63.74667969 12.1734375 63.74667969 11.62109375 62.30664062 C11.11835937 61.00267334 11.11835937 61.00267334 10.60546875 59.67236328 C9.87109375 57.51757812 9.87109375 57.51757812 9.87109375 55.51757812 C8.55109375 55.51757812 7.23109375 55.51757812 5.87109375 55.51757812 C5.71253906 56.08863281 5.55398437 56.6596875 5.390625 57.24804688 C3.30155911 64.50783938 0.65463073 71.49822399 -2.12890625 78.51757812 C-3.44890625 78.51757812 -4.76890625 78.51757812 -6.12890625 78.51757812 C-6.66515625 77.52757813 -7.20140625 76.53757812 -7.75390625 75.51757812 C-9.75878086 72.29108914 -9.75878086 72.29108914 -12.60546875 72.11914062 C-15.13641335 72.14052889 -17.61177199 72.25817879 -20.12890625 72.51757812 C-19.49069343 66.18518083 -17.5005436 60.95832226 -15.03710938 55.12695312 C-14.30270752 53.29355275 -13.70519787 51.40664958 -13.12890625 49.51757812 C-13.78890625 48.52757812 -14.44890625 47.53757813 -15.12890625 46.51757812 C-15.25265625 45.69257812 -15.37640625 44.86757813 -15.50390625 44.01757812 C-15.87254904 41.36708659 -15.87254904 41.36708659 -18.13476562 40.14648438 C-20.12890625 38.51757812 -20.12890625 38.51757812 -20.64648438 36.38867188 C-20.65099609 35.58558594 -20.65550781 34.7825 -20.66015625 33.95507812 C-20.6653125 33.0759375 -20.67046875 32.19679688 -20.67578125 31.29101562 C-20.6603125 30.37578125 -20.64484375 29.46054687 -20.62890625 28.51757812 C-20.644375 27.60234375 -20.65984375 26.68710937 -20.67578125 25.74414062 C-20.670625 24.865 -20.66546875 23.98585938 -20.66015625 23.08007812 C-20.65564453 22.27699219 -20.65113281 21.47390625 -20.64648438 20.64648438 C-19.94776598 17.77251062 -18.48992594 17.18551696 -16.12890625 15.51757812 C-15.63390625 13.78507812 -15.63390625 13.78507812 -15.12890625 12.01757812 C-14.12890625 8.51757812 -14.12890625 8.51757812 -12.31640625 6.64257812 C-10.12890625 5.51757812 -10.12890625 5.51757812 -7.56640625 5.08007812 C-4.97034144 4.77102401 -4.97034144 4.77102401 -3.76171875 2.515625 C-2.12890625 0.51757812 -2.12890625 0.51757812 0 0 Z M-0.12890625 3.51757812 C-0.78890625 4.83757813 -1.44890625 6.15757813 -2.12890625 7.51757812 C-4.45499195 7.89821033 -6.78945889 8.23027757 -9.12890625 8.51757812 C-11.12890625 9.51757812 -11.12890625 9.51757812 -12.12890625 11.51757812 C-12.34546875 13.28101563 -12.34546875 13.28101563 -12.56640625 15.08007812 C-12.75203125 16.21445312 -12.93765625 17.34882813 -13.12890625 18.51757812 C-15.10890625 19.50757813 -15.10890625 19.50757813 -17.12890625 20.51757812 C-17.12890625 25.79757813 -17.12890625 31.07757813 -17.12890625 36.51757812 C-15.80890625 37.17757812 -14.48890625 37.83757813 -13.12890625 38.51757812 C-12.74827404 40.84366382 -12.4162068 43.17813077 -12.12890625 45.51757812 C-11.12890625 47.51757812 -11.12890625 47.51757812 -9.12890625 48.51757812 C-7.95328125 48.66195312 -6.77765625 48.80632813 -5.56640625 48.95507812 C-3.86484375 49.23351563 -3.86484375 49.23351563 -2.12890625 49.51757812 C-1.46890625 50.83757813 -0.80890625 52.15757813 -0.12890625 53.51757812 C5.15109375 53.51757812 10.43109375 53.51757812 15.87109375 53.51757812 C16.53109375 52.19757812 17.19109375 50.87757812 17.87109375 49.51757812 C20.19717945 49.13694592 22.53164639 48.80487868 24.87109375 48.51757812 C26.87109375 47.51757812 26.87109375 47.51757812 27.87109375 45.51757812 C28.01546875 44.34195313 28.15984375 43.16632812 28.30859375 41.95507812 C28.58703125 40.25351563 28.58703125 40.25351563 28.87109375 38.51757812 C30.19109375 37.85757813 31.51109375 37.19757812 32.87109375 36.51757812 C32.87109375 31.23757812 32.87109375 25.95757812 32.87109375 20.51757812 C31.55109375 19.85757812 30.23109375 19.19757812 28.87109375 18.51757812 C28.49046154 16.19149243 28.1583943 13.85702548 27.87109375 11.51757812 C26.87109375 9.51757812 26.87109375 9.51757812 24.87109375 8.51757812 C23.10765625 8.30101562 23.10765625 8.30101562 21.30859375 8.08007812 C20.17421875 7.89445312 19.03984375 7.70882813 17.87109375 7.51757812 C17.21109375 6.19757812 16.55109375 4.87757812 15.87109375 3.51757812 C10.59109375 3.51757812 5.31109375 3.51757812 -0.12890625 3.51757812 Z M-10.12890625 51.51757812 C-11.16141687 53.95071185 -12.18010146 56.38814704 -13.19140625 58.83007812 C-13.48595703 59.52037109 -13.78050781 60.21066406 -14.08398438 60.921875 C-15.91770128 65.12283347 -15.91770128 65.12283347 -15.12890625 69.51757812 C-13.52015625 69.39382812 -13.52015625 69.39382812 -11.87890625 69.26757812 C-8.12890625 69.51757812 -8.12890625 69.51757812 -5.69140625 71.51757812 C-4.91796875 72.50757813 -4.91796875 72.50757813 -4.12890625 73.51757812 C-3.13890625 70.54757813 -2.14890625 67.57757813 -1.12890625 64.51757812 C-1.78890625 64.18757813 -2.44890625 63.85757813 -3.12890625 63.51757812 C-3.12890625 62.52757812 -3.12890625 61.53757812 -3.12890625 60.51757812 C-1.80890625 60.84757812 -0.48890625 61.17757812 0.87109375 61.51757812 C0.87109375 60.85757813 0.87109375 60.19757813 0.87109375 59.51757812 C0.21109375 59.18757813 -0.44890625 58.85757813 -1.12890625 58.51757812 C-1.83041777 57.20224402 -2.4941655 55.86640221 -3.12890625 54.51757812 C-3.78890625 53.52757812 -4.44890625 52.53757813 -5.12890625 51.51757812 C-7.71270802 51.26726835 -7.71270802 51.26726835 -10.12890625 51.51757812 Z M20.87109375 51.51757812 C19.82483966 52.81493319 18.82408152 54.15024785 17.87109375 55.51757812 C15.78125 56.14648438 15.78125 56.14648438 13.87109375 56.51757812 C15.53262387 62.37417718 17.34151291 67.97659153 19.87109375 73.51757812 C20.36609375 72.85757813 20.86109375 72.19757813 21.37109375 71.51757812 C24.97449587 68.63485643 27.34094417 69.21556815 31.87109375 69.51757812 C31.37609375 67.04257813 31.37609375 67.04257813 30.87109375 64.51757812 C30.54109375 65.17757812 30.21109375 65.83757812 29.87109375 66.51757812 C29.21109375 66.51757812 28.55109375 66.51757812 27.87109375 66.51757812 C27.54109375 64.86757812 27.21109375 63.21757813 26.87109375 61.51757812 C27.53109375 61.51757812 28.19109375 61.51757812 28.87109375 61.51757812 C27.88109375 58.21757813 26.89109375 54.91757813 25.87109375 51.51757812 C24.22109375 51.51757812 22.57109375 51.51757812 20.87109375 51.51757812 Z M0.87109375 56.51757812 C1.87109375 58.51757812 1.87109375 58.51757812 1.87109375 58.51757812 Z M-1.12890625 61.51757812 C-0.12890625 63.51757812 -0.12890625 63.51757812 -0.12890625 63.51757812 Z M28.87109375 61.51757812 C29.87109375 63.51757812 29.87109375 63.51757812 29.87109375 63.51757812 Z " fill="#FAAF04" transform="translate(42.12890625,10.482421875)"/>
<path d="M0 0 C1.22847656 -0.00515625 2.45695312 -0.0103125 3.72265625 -0.015625 C6.9375 0.25 6.9375 0.25 9.9375 2.25 C9.9375 2.91 9.9375 3.57 9.9375 4.25 C9.39609375 4.09273437 8.8546875 3.93546875 8.296875 3.7734375 C2.00415826 2.3773712 -4.84853054 2.03663405 -10.5625 5.3125 C-15.23296609 8.81534956 -17.64126672 12.33747272 -18.47265625 18.0859375 C-18.76877915 24.11469601 -18.2690789 28.72456147 -14.59375 33.625 C-10.14692227 38.34408249 -6.44991881 39.50183018 -0.125 39.8125 C5.68891289 39.5942054 9.71091523 38.30344756 13.9375 34.25 C17.07169183 30.32083823 18.45025969 26.24421318 18.9375 21.25 C19.5975 21.25 20.2575 21.25 20.9375 21.25 C21.60071945 27.61690672 19.90412433 31.27546293 15.9375 36.25 C9.69557673 42.03519718 4.82624509 42.75500772 -3.5703125 42.6328125 C-9.833556 41.94623771 -13.26458498 39.18985568 -17.4375 34.6875 C-21.83647544 28.08903684 -21.92347675 22.10421646 -21.0625 14.25 C-18.83785367 8.23793925 -14.68368587 4.54837825 -9.3515625 1.1640625 C-6.17820068 -0.10311611 -3.40576517 -0.01432498 0 0 Z " fill="#FAAF04" transform="translate(50.0625,17.75)"/>
<path d="M0 0 C0.75152344 0.07992188 1.50304687 0.15984375 2.27734375 0.2421875 C2.78923596 2.94125554 2.65466396 4.66495718 1.13916016 6.98339844 C-0.47785685 8.93331553 -2.1675837 10.77874526 -3.91015625 12.6171875 C-4.77737305 13.59751953 -4.77737305 13.59751953 -5.66210938 14.59765625 C-9.94905229 19.19945937 -9.94905229 19.19945937 -13.41015625 19.390625 C-16.06630669 18.07152326 -17.59876302 16.73654741 -19.53515625 14.4921875 C-20.44201172 13.47898437 -20.44201172 13.47898437 -21.3671875 12.4453125 C-22.97355199 9.83439154 -22.99118235 8.25389196 -22.72265625 5.2421875 C-20.47265625 4.9296875 -20.47265625 4.9296875 -17.72265625 5.2421875 C-15.41015625 7.7421875 -15.41015625 7.7421875 -13.72265625 10.2421875 C-9.40270285 8.44614561 -7.38869244 5.55613725 -4.6015625 1.921875 C-2.72265625 0.2421875 -2.72265625 0.2421875 0 0 Z M-3.88671875 4.359375 C-4.69882812 5.26945312 -5.5109375 6.17953125 -6.34765625 7.1171875 C-7.16492187 8.02210937 -7.9821875 8.92703125 -8.82421875 9.859375 C-10.93036631 11.99512445 -10.93036631 11.99512445 -10.72265625 14.2421875 C-14.30900265 12.30362188 -16.34926427 10.5197288 -18.72265625 7.2421875 C-19.38265625 7.2421875 -20.04265625 7.2421875 -20.72265625 7.2421875 C-19.05514477 11.18357828 -16.49554976 14.0314687 -13.72265625 17.2421875 C-9.6745659 15.65321746 -7.34702272 12.93592802 -4.47265625 9.7421875 C-4.01375 9.24332031 -3.55484375 8.74445312 -3.08203125 8.23046875 C-0.49335175 5.6407809 -0.49335175 5.6407809 0.27734375 2.2421875 C-1.98896798 2.00907989 -1.98896798 2.00907989 -3.88671875 4.359375 Z " fill="#FAAF03" transform="translate(61.72265625,30.7578125)"/>
<path d="M0 0 C0.99 0.33 1.98 0.66 3 1 C3.33 2.98 3.66 4.96 4 7 C3.34 7 2.68 7 2 7 C1.34 4.69 0.68 2.38 0 0 Z " fill="#FAB503" transform="translate(65,63)"/>
<path d="M0 0 C1.875 0.25 1.875 0.25 4 1 C5.25 3.0625 5.25 3.0625 6 5 C2.83884224 3.63016497 2.0072908 3.0109362 0 0 Z " fill="#F8AF05" transform="translate(61,22)"/>
<path d="M0 0 C0.99 0.33 1.98 0.66 3 1 C3 1.99 3 2.98 3 4 C2.34 4 1.68 4 1 4 C0.67 2.68 0.34 1.36 0 0 Z " fill="#F9AE04" transform="translate(67,29)"/>
<path d="M0 0 C0.66 0 1.32 0 2 0 C2 0.99 2 1.98 2 3 C1.34 3 0.68 3 0 3 C0 2.01 0 1.02 0 0 Z " fill="#FAB003" transform="translate(37,77)"/>
</svg>
