<?xml version="1.0" encoding="UTF-8"?>
<svg version="1.1" xmlns="http://www.w3.org/2000/svg" width="100" height="100">
<path d="M0 0 C9.9 0 19.8 0 30 0 C30.495 1.98 30.495 1.98 31 4 C31.59538574 3.98952637 32.19077148 3.97905273 32.80419922 3.96826172 C35.49442343 3.92676051 38.18458037 3.90069296 40.875 3.875 C41.81214844 3.85824219 42.74929687 3.84148438 43.71484375 3.82421875 C45.05869141 3.81455078 45.05869141 3.81455078 46.4296875 3.8046875 C47.25710449 3.79421387 48.08452148 3.78374023 48.93701172 3.77294922 C51 4 51 4 53 6 C53.19855525 8.73005123 53.2727178 11.35866732 53.25878906 14.08984375 C53.2622937 14.92573029 53.26579834 15.76161682 53.26940918 16.62283325 C53.27823414 19.39447254 53.27237468 22.16585797 53.265625 24.9375 C53.26697143 26.85799204 53.26891178 28.77848374 53.27142334 30.69897461 C53.27437564 34.72740926 53.27007356 38.75575532 53.26074219 42.78417969 C53.2493476 47.95630443 53.25590651 53.12822162 53.26788712 58.30033875 C53.27510286 62.26706516 53.2728191 66.2337421 53.26763153 70.20046997 C53.26629424 72.10792058 53.2679455 74.01537563 53.27259064 75.92282104 C53.27765119 78.58538772 53.26995235 81.24761496 53.25878906 83.91015625 C53.26283752 84.70398712 53.26688599 85.49781799 53.27105713 86.31570435 C53.22852828 91.77147172 53.22852828 91.77147172 51 94 C48.03955078 94.25396729 48.03955078 94.25396729 44.1953125 94.25878906 C43.49597595 94.2622937 42.7966394 94.26579834 42.07611084 94.26940918 C39.75897362 94.27822876 37.44214045 94.2723767 35.125 94.265625 C33.51839133 94.26697159 31.91178305 94.26891207 30.30517578 94.27142334 C26.93583298 94.2743749 23.56659613 94.27007597 20.19726562 94.26074219 C15.87260506 94.24934758 11.54819271 94.25590689 7.22354126 94.26788712 C3.9053357 94.27510488 0.58718925 94.27281819 -2.73101807 94.26763153 C-4.325867 94.2662948 -5.92072125 94.26794358 -7.51556396 94.27259064 C-9.74229198 94.27765456 -11.96861476 94.26994788 -14.1953125 94.25878906 C-15.46391113 94.25719788 -16.73250977 94.25560669 -18.03955078 94.25396729 C-21 94 -21 94 -23 92 C-23.19855525 89.26994877 -23.2727178 86.64133268 -23.25878906 83.91015625 C-23.26404602 82.65632645 -23.26404602 82.65632645 -23.26940918 81.37716675 C-23.27823414 78.60552746 -23.27237468 75.83414203 -23.265625 73.0625 C-23.26697143 71.14200796 -23.26891178 69.22151626 -23.27142334 67.30102539 C-23.27437564 63.27259074 -23.27007356 59.24424468 -23.26074219 55.21582031 C-23.2493476 50.04369557 -23.25590651 44.87177838 -23.26788712 39.69966125 C-23.27510286 35.73293484 -23.2728191 31.7662579 -23.26763153 27.79953003 C-23.26629424 25.89207942 -23.2679455 23.98462437 -23.27259064 22.07717896 C-23.27765119 19.41461228 -23.26995235 16.75238504 -23.25878906 14.08984375 C-23.26283752 13.29601288 -23.26688599 12.50218201 -23.27105713 11.68429565 C-23.22852828 6.22852828 -23.22852828 6.22852828 -21 4 C-18.93701172 3.77294922 -18.93701172 3.77294922 -16.4296875 3.8046875 C-15.53378906 3.81113281 -14.63789063 3.81757812 -13.71484375 3.82421875 C-12.30912109 3.84935547 -12.30912109 3.84935547 -10.875 3.875 C-9.93011719 3.88402344 -8.98523437 3.89304687 -8.01171875 3.90234375 C-5.67422708 3.92595478 -3.33723877 3.95888484 -1 4 C-0.67 2.68 -0.34 1.36 0 0 Z M3 4 C3 7.3 3 10.6 3 14 C10.92 14 18.84 14 27 14 C27 10.7 27 7.4 27 4 C19.08 4 11.16 4 3 4 Z M-19 10 C-19.19823371 12.48856912 -19.27280688 14.86584137 -19.25878906 17.35546875 C-19.2622937 18.11332672 -19.26579834 18.87118469 -19.26940918 19.65200806 C-19.2782313 22.16393114 -19.27237574 24.67557392 -19.265625 27.1875 C-19.26697151 28.92863011 -19.26891193 30.66975985 -19.27142334 32.41088867 C-19.27437525 36.06269912 -19.27007483 39.71441183 -19.26074219 43.36621094 C-19.24934759 48.05406981 -19.25590671 52.7416997 -19.26788712 57.42955017 C-19.27510392 61.0256931 -19.27281862 64.62178148 -19.26763153 68.21792603 C-19.26629454 69.9467471 -19.26794449 71.67557308 -19.27259064 73.40438843 C-19.27765297 75.81790341 -19.26994999 78.23104423 -19.25878906 80.64453125 C-19.26283752 81.36355621 -19.26688599 82.08258118 -19.27105713 82.82339478 C-19.34964599 86.85996365 -19.34964599 86.85996365 -17 90 C-14.22172172 90.30747823 -14.22172172 90.30747823 -10.9296875 90.25878906 C-9.01760498 90.26824554 -9.01760498 90.26824554 -7.06689453 90.27789307 C-5.66959496 90.27431339 -4.27229663 90.27021146 -2.875 90.265625 C-1.44775323 90.26697171 -0.02050691 90.26891229 1.40673828 90.27142334 C4.39945845 90.27437434 7.39205931 90.27007782 10.38476562 90.26074219 C14.22516373 90.24934755 18.06528232 90.25590717 21.90567017 90.26788712 C24.853293 90.27510643 27.80084931 90.27281748 30.74847412 90.26763153 C32.16469353 90.26629523 33.58091894 90.26794209 34.99713135 90.27259064 C36.97464893 90.27765675 38.95218762 90.26856908 40.9296875 90.25878906 C42.05616699 90.25719788 43.18264648 90.25560669 44.34326172 90.25396729 C47.15473836 90.26966815 47.15473836 90.26966815 49 88 C49.19823371 85.51143088 49.27280688 83.13415863 49.25878906 80.64453125 C49.2622937 79.88667328 49.26579834 79.12881531 49.26940918 78.34799194 C49.2782313 75.83606886 49.27237574 73.32442608 49.265625 70.8125 C49.26697151 69.07136989 49.26891193 67.33024015 49.27142334 65.58911133 C49.27437525 61.93730088 49.27007483 58.28558817 49.26074219 54.63378906 C49.24934759 49.94593019 49.25590671 45.2583003 49.26788712 40.57044983 C49.27510392 36.9743069 49.27281862 33.37821852 49.26763153 29.78207397 C49.26629454 28.0532529 49.26794449 26.32442692 49.27259064 24.59561157 C49.27765297 22.18209659 49.26994999 19.76895577 49.25878906 17.35546875 C49.26283752 16.63644379 49.26688599 15.91741882 49.27105713 15.17660522 C49.34964599 11.14003635 49.34964599 11.14003635 47 8 C44.25514407 7.85492305 41.61519457 7.81347577 38.875 7.875 C37.74384766 7.88853516 37.74384766 7.88853516 36.58984375 7.90234375 C34.72642746 7.9259313 32.86317407 7.96180281 31 8 C31 9.32 31 10.64 31 12 C35.62 12 40.24 12 45 12 C45 36.42 45 60.84 45 86 C25.2 86 5.4 86 -15 86 C-15 61.58 -15 37.16 -15 12 C-10.38 12 -5.76 12 -1 12 C-1 10.68 -1 9.36 -1 8 C-3.62527189 7.94617894 -6.24944713 7.90641687 -8.875 7.875 C-9.99455078 7.84986328 -9.99455078 7.84986328 -11.13671875 7.82421875 C-15.53652444 7.59911196 -15.53652444 7.59911196 -19 10 Z M-11 16 C-11 37.78 -11 59.56 -11 82 C6.16 82 23.32 82 41 82 C41 60.22 41 38.44 41 16 C37.7 16 34.4 16 31 16 C30.67 16.33 30.34 16.66 30 17 C27.79349344 17.10012401 25.58377614 17.1308118 23.375 17.1328125 C22.71290527 17.13376923 22.05081055 17.13472595 21.36865234 17.13571167 C19.96647039 17.13639326 18.5642853 17.13454042 17.16210938 17.13037109 C15.00904287 17.12502246 12.85618498 17.1303167 10.703125 17.13671875 C9.34374954 17.13605796 7.9843742 17.13477679 6.625 17.1328125 C5.37976563 17.13168457 4.13453125 17.13055664 2.8515625 17.12939453 C0 17 0 17 -1 16 C-4.3 16 -7.6 16 -11 16 Z " fill="#F9AF04" transform="translate(35,2)"/>
<path d="M0 0 C1.99954746 -0.04254356 4.00041636 -0.04080783 6 0 C7 1 7 1 7.4375 3.8125 C7.293125 4.864375 7.14875 5.91625 7 7 C4.3125 9 4.3125 9 1 11 C-2.29330474 14.20405529 -4.57882316 17.60727159 -6 22 C-7.98 22 -9.96 22 -12 22 C-12.391875 21.113125 -12.78375 20.22625 -13.1875 19.3125 C-15.06636955 15.87870392 -17.13295455 13.63458231 -20 11 C-24.43280987 12.89977566 -27.23930149 15.32646327 -29.25 19.75 C-29.4975 20.4925 -29.745 21.235 -30 22 C-31.99954746 22.04254356 -34.00041636 22.04080783 -36 22 C-37 21 -37 21 -37.0625 17.9375 C-37.041875 16.968125 -37.02125 15.99875 -37 15 C-36.113125 14.608125 -35.22625 14.21625 -34.3125 13.8125 C-29.05745731 10.93709928 -25.81189342 7.76511543 -24 2 C-22.02 2 -20.04 2 -18 2 C-17.62875 2.886875 -17.2575 3.77375 -16.875 4.6875 C-14.66943462 8.58399884 -12.53871294 10.32630578 -9 13 C-3.39698948 7.19491074 -3.39698948 7.19491074 0 0 Z " fill="#F9B004" transform="translate(65,56)"/>
<path d="M0 0 C11.88 0 23.76 0 36 0 C36 1.32 36 2.64 36 4 C24.12 4 12.24 4 0 4 C0 2.68 0 1.36 0 0 Z " fill="#FAB005" transform="translate(32,36)"/>
<path d="M0 0 C11.88 0 23.76 0 36 0 C36 1.32 36 2.64 36 4 C24.12 4 12.24 4 0 4 C0 2.68 0 1.36 0 0 Z " fill="#FAB005" transform="translate(32,26)"/>
<path d="M0 0 C5.28 0 10.56 0 16 0 C16 1.32 16 2.64 16 4 C10.72 4 5.44 4 0 4 C0 2.68 0 1.36 0 0 Z " fill="#FAB005" transform="translate(32,46)"/>
</svg>
