<?xml version="1.0" encoding="UTF-8"?>
<svg version="1.1" xmlns="http://www.w3.org/2000/svg" width="100" height="100">
<path d="M0 0 C19.47 0 38.94 0 59 0 C59 4.29 59 8.58 59 13 C68.24 13 77.48 13 87 13 C94.9908406 32.86611759 97.3432139 46.84380702 96 68 C95.16529175 68.28133789 95.16529175 68.28133789 94.3137207 68.56835938 C93.58757568 68.82423828 92.86143066 69.08011719 92.11328125 69.34375 C91.39180908 69.59318359 90.67033691 69.84261719 89.92700195 70.09960938 C87.13085124 71.40610929 86.29544621 73.27274483 85 76 C82.93532144 78.40879165 82.11005341 78.96331553 79 80 C73.59091325 80.34897334 70.45029511 80.40316685 66 77 C65.34 76.34 64.68 75.68 64 75 C64 74.01 64 73.02 64 72 C59.08789511 72.01941995 54.17758193 72.07113174 49.26611328 72.15258789 C47.59596524 72.17576188 45.92567119 72.19016225 44.25537109 72.19555664 C41.85161421 72.20485136 39.45015159 72.2458466 37.046875 72.29296875 C36.30193787 72.2890361 35.55700073 72.28510345 34.78948975 72.28105164 C30.922113 72.38951056 29.3569352 72.6304296 26.62060547 75.46362305 C26.08580566 76.30062744 25.55100586 77.13763184 25 78 C20.91252682 80.66574338 16.73167277 80.67243876 12 80 C7.9488101 77.93757605 5.55150102 76.27663031 4 72 C3.83188897 69.35288399 3.76694404 66.81568466 3.8046875 64.171875 C3.8075174 63.42286926 3.81034729 62.67386353 3.81326294 61.90216064 C3.8244274 59.51794224 3.84952469 57.13410421 3.875 54.75 C3.88503465 53.13021377 3.89415965 51.51042164 3.90234375 49.890625 C3.92435445 45.92693754 3.95885825 41.96353319 4 38 C5.65 38 7.3 38 9 38 C9 43.94 9 49.88 9 56 C10.32 55.34 11.64 54.68 13 54 C18.23367486 53.51540048 21.55700877 54.17264194 26 57 C29.35133647 60.35133647 29.14310555 61.8586333 30 67 C40.56 67 51.12 67 62 67 C62.33 65.02 62.66 63.04 63 61 C64.80553781 58.1627263 66.3426709 56.41317829 69.1875 54.625 C74.48327156 53.44816188 79.22357243 53.91869626 83.875 56.75 C86.01786317 59.01891395 87.43413484 61.31565972 89 64 C89.66 64 90.32 64 91 64 C91.16516685 48.77328888 89.25496348 35.97185826 83.62670898 21.78979492 C83 20 83 20 83 18 C75.08 18 67.16 18 59 18 C59 31.53 59 45.06 59 59 C57.35 59 55.7 59 54 59 C54 41.18 54 23.36 54 5 C36.18 5 18.36 5 0 5 C0 3.35 0 1.7 0 0 Z M10 62 C8.55569145 64.88861709 8.62311494 66.79647701 9 70 C10.91666667 73.08333333 10.91666667 73.08333333 14 75 C17.51955419 75 19.84920059 74.63108355 22.9375 72.9375 C24.68635254 69.74841596 24.53260383 66.54329495 24 63 C22.40970955 60.26116645 21.16534703 60.05032301 18.125 59.125 C14.39868289 58.97594732 12.91840353 59.74866013 10 62 Z M70.1875 60.5625 C67.53931088 63.5133393 67 65.05039058 67 69 C68.73344875 72.72843964 68.73344875 72.72843964 72 75 C75.55869346 75.38681451 77.34267853 75.46190157 80.3125 73.375 C82.41176127 70.42048414 83 68.63075827 83 65 C81.08197413 61.54755343 79.78456393 60.28377844 76.0625 58.9375 C72.91015825 58.76300935 72.91015825 58.76300935 70.1875 60.5625 Z " fill="#F9AF04" transform="translate(0,12)"/>
<path d="M0 0 C8.25 0 16.5 0 25 0 C25 1.65 25 3.3 25 5 C16.75 5 8.5 5 0 5 C0 3.35 0 1.7 0 0 Z " fill="#FAAF05" transform="translate(0,25)"/>
<path d="M0 0 C5.61 0 11.22 0 17 0 C17 1.65 17 3.3 17 5 C11.39 5 5.78 5 0 5 C0 3.35 0 1.7 0 0 Z " fill="#F9AF04" transform="translate(0,37)"/>
</svg>
